<svg xmlns="http://www.w3.org/2000/svg" width="16" height="16" viewBox="0 0 16 16" fill="none">
<path d="M15.0998 8.00414L14.622 8.18282C13.4991 8.60516 12.8142 9.50669 12.4001 10.6519L12.2249 11.1392L12.0497 10.6519C11.6356 9.50669 10.9109 8.60516 9.78801 8.18282L9.31018 8.00414L9.78801 7.82546C10.9109 7.40312 11.6356 6.50159 12.0497 5.3564L12.2249 4.86909L12.4001 5.3564C12.8142 6.50159 13.4991 7.40312 14.622 7.82546L15.0998 8.00414Z" fill="#ABAFB2"/>
<path d="M2 8.42721C5.5608 8.42721 8.44479 11.3685 8.44479 15" stroke="#ABAFB2" stroke-width="2.05092" stroke-miterlimit="10"/>
<path d="M2 7.57275C5.5608 7.57275 8.44479 4.6315 8.44479 0.999991" stroke="#ABAFB2" stroke-width="2.05092" stroke-miterlimit="10"/>
</svg>