<svg xmlns="http://www.w3.org/2000/svg" width="64" height="64" viewBox="0 0 64 64" fill="none"><rect width="64" height="64" rx="12.1519" fill="#838DC1" fill-opacity="0.2"/><path d="M14.4987 43.98C13.6347 43.148 12.8347 42.156 12.0987 41.004C11.3627 39.868 10.7707 38.588 10.3227 37.164C9.89066 35.74 9.67466 34.188 9.67466 32.508C9.67466 30.828 9.89066 29.276 10.3227 27.852C10.7707 26.428 11.3627 25.14 12.0987 23.988C12.8347 22.836 13.6347 21.852 14.4987 21.036H16.5627V21.228C15.5867 22.188 14.7307 23.26 13.9947 24.444C13.2747 25.628 12.7067 26.9 12.2907 28.26C11.8907 29.604 11.6907 31.02 11.6907 32.508C11.6907 33.996 11.8907 35.42 12.2907 36.78C12.7067 38.124 13.2827 39.388 14.0187 40.572C14.7547 41.756 15.6027 42.828 16.5627 43.788V43.98H14.4987ZM24.5703 40.788C23.0983 40.788 21.8263 40.428 20.7543 39.708C19.6983 38.972 18.8903 37.956 18.3303 36.66C17.7703 35.348 17.4903 33.828 17.4903 32.1C17.4903 30.372 17.7703 28.86 18.3303 27.564C18.8903 26.252 19.6983 25.236 20.7543 24.516C21.8263 23.78 23.0983 23.412 24.5703 23.412C26.0423 23.412 27.2983 23.78 28.3383 24.516C29.3943 25.236 30.2023 26.252 30.7623 27.564C31.3223 28.86 31.6023 30.372 31.6023 32.1C31.6023 33.828 31.3223 35.348 30.7623 36.66C30.2023 37.956 29.3943 38.972 28.3383 39.708C27.2983 40.428 26.0423 40.788 24.5703 40.788ZM24.5463 39.012C25.5063 39.012 26.3623 38.74 27.1143 38.196C27.8663 37.636 28.4583 36.844 28.8903 35.82C29.3223 34.78 29.5383 33.54 29.5383 32.1C29.5383 30.66 29.3223 29.428 28.8903 28.404C28.4583 27.364 27.8663 26.572 27.1143 26.028C26.3623 25.484 25.5063 25.212 24.5463 25.212C23.5863 25.212 22.7223 25.484 21.9543 26.028C21.2023 26.572 20.6103 27.364 20.1783 28.404C19.7623 29.428 19.5543 30.66 19.5543 32.1C19.5543 33.54 19.7623 34.78 20.1783 35.82C20.6103 36.844 21.2023 37.636 21.9543 38.196C22.7223 38.74 23.5863 39.012 24.5463 39.012ZM39.5765 40.788C38.5045 40.788 37.5285 40.596 36.6485 40.212C35.7845 39.812 35.0965 39.22 34.5845 38.436C34.0725 37.652 33.8005 36.676 33.7685 35.508H35.8085C35.8245 36.148 35.9765 36.74 36.2645 37.284C36.5685 37.812 37.0005 38.236 37.5605 38.556C38.1205 38.876 38.7925 39.036 39.5765 39.036C40.3605 39.036 41.0165 38.884 41.5445 38.58C42.0725 38.276 42.4725 37.876 42.7445 37.38C43.0165 36.868 43.1525 36.3 43.1525 35.676C43.1525 34.892 42.9605 34.26 42.5765 33.78C42.2085 33.284 41.7045 32.924 41.0645 32.7C40.4405 32.46 39.7525 32.34 39.0005 32.34H37.7525V30.636H39.0005C40.1045 30.636 40.9685 30.38 41.5925 29.868C42.2165 29.356 42.5285 28.652 42.5285 27.756C42.5285 27.02 42.2805 26.404 41.7845 25.908C41.3045 25.412 40.5685 25.164 39.5765 25.164C38.6325 25.164 37.8805 25.436 37.3205 25.98C36.7605 26.524 36.4405 27.22 36.3605 28.068H34.3205C34.3685 27.156 34.6165 26.348 35.0645 25.644C35.5125 24.94 36.1205 24.396 36.8885 24.012C37.6565 23.612 38.5605 23.412 39.6005 23.412C40.6885 23.412 41.6005 23.604 42.3365 23.988C43.0725 24.372 43.6245 24.884 43.9925 25.524C44.3765 26.164 44.5685 26.868 44.5685 27.636C44.5685 28.212 44.4645 28.756 44.2565 29.268C44.0485 29.764 43.7365 30.204 43.3205 30.588C42.9045 30.972 42.3765 31.244 41.7365 31.404C42.3925 31.532 42.9765 31.78 43.4885 32.148C44.0165 32.516 44.4325 32.996 44.7365 33.588C45.0405 34.18 45.1925 34.876 45.1925 35.676C45.1925 36.588 44.9765 37.436 44.5445 38.22C44.1285 38.988 43.5045 39.612 42.6725 40.092C41.8405 40.556 40.8085 40.788 39.5765 40.788ZM49.5002 43.98H47.4362V43.788C48.4122 42.828 49.2602 41.756 49.9802 40.572C50.7162 39.388 51.2842 38.124 51.6842 36.78C52.1002 35.42 52.3082 33.996 52.3082 32.508C52.3082 31.02 52.1002 29.604 51.6842 28.26C51.2842 26.9 50.7162 25.628 49.9802 24.444C49.2602 23.26 48.4122 22.188 47.4362 21.228V21.036H49.5002C50.3802 21.852 51.1802 22.836 51.9002 23.988C52.6362 25.14 53.2202 26.428 53.6522 27.852C54.1002 29.276 54.3242 30.828 54.3242 32.508C54.3242 34.188 54.1002 35.74 53.6522 37.164C53.2202 38.588 52.6362 39.868 51.9002 41.004C51.1802 42.156 50.3802 43.148 49.5002 43.98Z" fill="#0A0F2A"/></svg>