<svg xmlns="http://www.w3.org/2000/svg" width="64" height="64" viewBox="0 0 64 64" fill="none"><rect width="64" height="64" rx="12.1519" fill="#838DC1" fill-opacity="0.2"/><path d="M17.8503 43.98C16.9863 43.148 16.1863 42.156 15.4503 41.004C14.7143 39.868 14.1223 38.588 13.6743 37.164C13.2423 35.74 13.0263 34.188 13.0263 32.508C13.0263 30.828 13.2423 29.276 13.6743 27.852C14.1223 26.428 14.7143 25.14 15.4503 23.988C16.1863 22.836 16.9863 21.852 17.8503 21.036H19.9143V21.228C18.9383 22.188 18.0823 23.26 17.3463 24.444C16.6263 25.628 16.0583 26.9 15.6423 28.26C15.2423 29.604 15.0423 31.02 15.0423 32.508C15.0423 33.996 15.2423 35.42 15.6423 36.78C16.0583 38.124 16.6343 39.388 17.3703 40.572C18.1063 41.756 18.9543 42.828 19.9143 43.788V43.98H17.8503ZM27.922 40.788C26.45 40.788 25.178 40.428 24.106 39.708C23.05 38.972 22.242 37.956 21.682 36.66C21.122 35.348 20.842 33.828 20.842 32.1C20.842 30.372 21.122 28.86 21.682 27.564C22.242 26.252 23.05 25.236 24.106 24.516C25.178 23.78 26.45 23.412 27.922 23.412C29.394 23.412 30.65 23.78 31.69 24.516C32.746 25.236 33.554 26.252 34.114 27.564C34.674 28.86 34.954 30.372 34.954 32.1C34.954 33.828 34.674 35.348 34.114 36.66C33.554 37.956 32.746 38.972 31.69 39.708C30.65 40.428 29.394 40.788 27.922 40.788ZM27.898 39.012C28.858 39.012 29.714 38.74 30.466 38.196C31.218 37.636 31.81 36.844 32.242 35.82C32.674 34.78 32.89 33.54 32.89 32.1C32.89 30.66 32.674 29.428 32.242 28.404C31.81 27.364 31.218 26.572 30.466 26.028C29.714 25.484 28.858 25.212 27.898 25.212C26.938 25.212 26.074 25.484 25.306 26.028C24.554 26.572 23.962 27.364 23.53 28.404C23.114 29.428 22.906 30.66 22.906 32.1C22.906 33.54 23.114 34.78 23.53 35.82C23.962 36.844 24.554 37.636 25.306 38.196C26.074 38.74 26.938 39.012 27.898 39.012ZM39.5442 40.5V25.956L36.6642 26.676V25.236L40.2162 23.7H41.5842V40.5H39.5442ZM46.1488 43.98H44.0848V43.788C45.0608 42.828 45.9088 41.756 46.6288 40.572C47.3648 39.388 47.9328 38.124 48.3328 36.78C48.7488 35.42 48.9568 33.996 48.9568 32.508C48.9568 31.02 48.7488 29.604 48.3328 28.26C47.9328 26.9 47.3648 25.628 46.6288 24.444C45.9088 23.26 45.0608 22.188 44.0848 21.228V21.036H46.1488C47.0288 21.852 47.8288 22.836 48.5488 23.988C49.2848 25.14 49.8688 26.428 50.3008 27.852C50.7488 29.276 50.9728 30.828 50.9728 32.508C50.9728 34.188 50.7488 35.74 50.3008 37.164C49.8688 38.588 49.2848 39.868 48.5488 41.004C47.8288 42.156 47.0288 43.148 46.1488 43.98Z" fill="#0A0F2A"/></svg>