<svg xmlns="http://www.w3.org/2000/svg" width="64" height="64" viewBox="0 0 64 64" fill="none"><rect width="64" height="64" rx="12.1519" fill="#838DC1" fill-opacity="0.2"/><path d="M13.9166 43.98C13.0526 43.148 12.2526 42.156 11.5166 41.004C10.7806 39.868 10.1886 38.588 9.74062 37.164C9.30862 35.74 9.09262 34.188 9.09262 32.508C9.09262 30.828 9.30862 29.276 9.74062 27.852C10.1886 26.428 10.7806 25.14 11.5166 23.988C12.2526 22.836 13.0526 21.852 13.9166 21.036H15.9806V21.228C15.0046 22.188 14.1486 23.26 13.4126 24.444C12.6926 25.628 12.1246 26.9 11.7086 28.26C11.3086 29.604 11.1086 31.02 11.1086 32.508C11.1086 33.996 11.3086 35.42 11.7086 36.78C12.1246 38.124 12.7006 39.388 13.4366 40.572C14.1726 41.756 15.0206 42.828 15.9806 43.788V43.98H13.9166ZM23.9883 40.788C22.5162 40.788 21.2442 40.428 20.1722 39.708C19.1162 38.972 18.3082 37.956 17.7482 36.66C17.1882 35.348 16.9082 33.828 16.9082 32.1C16.9082 30.372 17.1882 28.86 17.7482 27.564C18.3082 26.252 19.1162 25.236 20.1722 24.516C21.2442 23.78 22.5162 23.412 23.9883 23.412C25.4603 23.412 26.7162 23.78 27.7562 24.516C28.8123 25.236 29.6203 26.252 30.1802 27.564C30.7403 28.86 31.0203 30.372 31.0203 32.1C31.0203 33.828 30.7403 35.348 30.1802 36.66C29.6203 37.956 28.8123 38.972 27.7562 39.708C26.7162 40.428 25.4603 40.788 23.9883 40.788ZM23.9642 39.012C24.9242 39.012 25.7802 38.74 26.5323 38.196C27.2843 37.636 27.8762 36.844 28.3082 35.82C28.7402 34.78 28.9562 33.54 28.9562 32.1C28.9562 30.66 28.7402 29.428 28.3082 28.404C27.8762 27.364 27.2843 26.572 26.5323 26.028C25.7802 25.484 24.9242 25.212 23.9642 25.212C23.0042 25.212 22.1402 25.484 21.3722 26.028C20.6202 26.572 20.0282 27.364 19.5962 28.404C19.1802 29.428 18.9722 30.66 18.9722 32.1C18.9722 33.54 19.1802 34.78 19.5962 35.82C20.0282 36.844 20.6202 37.636 21.3722 38.196C22.1402 38.74 23.0042 39.012 23.9642 39.012ZM39.7865 40.788C38.5705 40.788 37.5465 40.564 36.7145 40.116C35.8825 39.652 35.2185 39.044 34.7225 38.292C34.2265 37.524 33.8585 36.66 33.6185 35.7C33.3945 34.74 33.2825 33.764 33.2825 32.772C33.2825 30.916 33.5385 29.292 34.0505 27.9C34.5625 26.492 35.2985 25.396 36.2585 24.612C37.2345 23.812 38.4025 23.412 39.7625 23.412C40.8185 23.412 41.7225 23.62 42.4745 24.036C43.2425 24.436 43.8505 24.98 44.2985 25.668C44.7465 26.356 45.0185 27.124 45.1145 27.972H43.2425C43.0825 27.076 42.6905 26.388 42.0665 25.908C41.4585 25.412 40.6825 25.164 39.7385 25.164C38.9065 25.164 38.1545 25.428 37.4825 25.956C36.8105 26.468 36.2745 27.26 35.8745 28.332C35.4905 29.388 35.2665 30.74 35.2025 32.388C35.2025 32.404 35.2025 32.428 35.2025 32.46C35.2025 32.492 35.2025 32.524 35.2025 32.556C35.4585 32.06 35.8105 31.596 36.2585 31.164C36.7225 30.732 37.2745 30.388 37.9145 30.132C38.5545 29.876 39.2665 29.748 40.0505 29.748C40.9945 29.748 41.8825 29.972 42.7145 30.42C43.5465 30.868 44.2185 31.5 44.7305 32.316C45.2585 33.116 45.5225 34.06 45.5225 35.148C45.5225 36.092 45.2905 36.996 44.8265 37.86C44.3785 38.724 43.7225 39.428 42.8585 39.972C41.9945 40.516 40.9705 40.788 39.7865 40.788ZM39.6425 39.012C40.3785 39.012 41.0345 38.852 41.6105 38.532C42.2025 38.196 42.6585 37.748 42.9785 37.188C43.3145 36.612 43.4825 35.964 43.4825 35.244C43.4825 34.492 43.3145 33.836 42.9785 33.276C42.6585 32.716 42.2025 32.284 41.6105 31.98C41.0345 31.66 40.3785 31.5 39.6425 31.5C38.9065 31.5 38.2425 31.668 37.6505 32.004C37.0585 32.34 36.5865 32.796 36.2345 33.372C35.8985 33.932 35.7305 34.564 35.7305 35.268C35.7305 35.988 35.8985 36.636 36.2345 37.212C36.5865 37.772 37.0585 38.212 37.6505 38.532C38.2425 38.852 38.9065 39.012 39.6425 39.012ZM49.0823 43.98H47.0183V43.788C47.9943 42.828 48.8423 41.756 49.5623 40.572C50.2983 39.388 50.8663 38.124 51.2663 36.78C51.6823 35.42 51.8903 33.996 51.8903 32.508C51.8903 31.02 51.6823 29.604 51.2663 28.26C50.8663 26.9 50.2983 25.628 49.5623 24.444C48.8423 23.26 47.9943 22.188 47.0183 21.228V21.036H49.0823C49.9623 21.852 50.7623 22.836 51.4823 23.988C52.2183 25.14 52.8023 26.428 53.2343 27.852C53.6823 29.276 53.9063 30.828 53.9063 32.508C53.9063 34.188 53.6823 35.74 53.2343 37.164C52.8023 38.588 52.2183 39.868 51.4823 41.004C50.7623 42.156 49.9623 43.148 49.0823 43.98Z" fill="#0A0F2A"/></svg>