<svg xmlns="http://www.w3.org/2000/svg" width="64" height="64" viewBox="0 0 64 64" fill="none"><rect width="64" height="64" rx="12.1519" fill="#838DC1" fill-opacity="0.2"/><path d="M43.2378 23.3758L39.2948 18.1184C38.2329 16.7025 36.2498 16.3628 34.7772 17.3446L25.6135 23.4537" stroke="#838DC1" stroke-width="2.5" stroke-linecap="round" stroke-linejoin="round"/><path fill-rule="evenodd" clip-rule="evenodd" d="M43.2377 30.9568H47.4061C48.327 30.9568 49.0735 31.7033 49.0735 32.6242V37.6263C49.0735 38.5471 48.327 39.2936 47.4061 39.2936H43.2377C40.9356 39.2936 39.0693 37.4274 39.0693 35.1252V35.1252C39.0693 32.8231 40.9356 30.9568 43.2377 30.9568V30.9568Z" stroke="#838DC1" stroke-width="2.5" stroke-linecap="round" stroke-linejoin="round"/><path d="M32.3998 46.7968H43.2377C45.5398 46.7968 47.4061 44.9305 47.4061 42.6284V39.2936" stroke="#838DC1" stroke-width="2.5" stroke-linecap="round" stroke-linejoin="round"/><circle cx="22.3957" cy="41.7947" r="6.66944" stroke="#838DC1" stroke-width="2.5" stroke-linecap="round" stroke-linejoin="round"/><path d="M47.4062 30.9568V27.6221C47.4062 25.32 45.54 23.4537 43.2378 23.4537H21.5621C19.26 23.4537 17.3937 25.32 17.3937 27.6221V31.7905" stroke="#838DC1" stroke-width="2.5" stroke-linecap="round" stroke-linejoin="round"/><path d="M24.0634 40.1283L20.7287 43.461" stroke="#838DC1" stroke-width="2.5" stroke-linecap="round" stroke-linejoin="round"/><path d="M20.7295 40.1273L24.0622 43.462" stroke="#838DC1" stroke-width="2.5" stroke-linecap="round" stroke-linejoin="round"/></svg>