<svg xmlns="http://www.w3.org/2000/svg" width="64" height="64" viewBox="0 0 64 64" fill="none"><rect width="64" height="64" rx="12.1519" fill="#838DC1" fill-opacity="0.2"/><path d="M13.4322 43.98C12.5682 43.148 11.7682 42.156 11.0322 41.004C10.2962 39.868 9.70425 38.588 9.25625 37.164C8.82425 35.74 8.60825 34.188 8.60825 32.508C8.60825 30.828 8.82425 29.276 9.25625 27.852C9.70425 26.428 10.2962 25.14 11.0322 23.988C11.7682 22.836 12.5682 21.852 13.4322 21.036H15.4962V21.228C14.5202 22.188 13.6642 23.26 12.9282 24.444C12.2082 25.628 11.6402 26.9 11.2242 28.26C10.8242 29.604 10.6242 31.02 10.6242 32.508C10.6242 33.996 10.8242 35.42 11.2242 36.78C11.6402 38.124 12.2162 39.388 12.9522 40.572C13.6882 41.756 14.5362 42.828 15.4962 43.788V43.98H13.4322ZM23.5039 40.788C22.0319 40.788 20.7599 40.428 19.6879 39.708C18.6319 38.972 17.8239 37.956 17.2639 36.66C16.7039 35.348 16.4239 33.828 16.4239 32.1C16.4239 30.372 16.7039 28.86 17.2639 27.564C17.8239 26.252 18.6319 25.236 19.6879 24.516C20.7599 23.78 22.0319 23.412 23.5039 23.412C24.9759 23.412 26.2319 23.78 27.2719 24.516C28.3279 25.236 29.1359 26.252 29.6959 27.564C30.2559 28.86 30.5359 30.372 30.5359 32.1C30.5359 33.828 30.2559 35.348 29.6959 36.66C29.1359 37.956 28.3279 38.972 27.2719 39.708C26.2319 40.428 24.9759 40.788 23.5039 40.788ZM23.4799 39.012C24.4399 39.012 25.2959 38.74 26.0479 38.196C26.7999 37.636 27.3919 36.844 27.8239 35.82C28.2559 34.78 28.4719 33.54 28.4719 32.1C28.4719 30.66 28.2559 29.428 27.8239 28.404C27.3919 27.364 26.7999 26.572 26.0479 26.028C25.2959 25.484 24.4399 25.212 23.4799 25.212C22.5199 25.212 21.6559 25.484 20.8879 26.028C20.1359 26.572 19.5439 27.364 19.1119 28.404C18.6959 29.428 18.4879 30.66 18.4879 32.1C18.4879 33.54 18.6959 34.78 19.1119 35.82C19.5439 36.844 20.1359 37.636 20.8879 38.196C21.6559 38.74 22.5199 39.012 23.4799 39.012ZM38.9421 40.788C37.7901 40.788 36.7901 40.58 35.9421 40.164C35.1101 39.748 34.4461 39.18 33.9501 38.46C33.4701 37.74 33.1661 36.932 33.0381 36.036H35.0061C35.1981 36.932 35.6381 37.66 36.3261 38.22C37.0141 38.78 37.8941 39.06 38.9661 39.06C39.7661 39.06 40.4461 38.876 41.0061 38.508C41.5821 38.14 42.0221 37.636 42.3261 36.996C42.6461 36.356 42.8061 35.644 42.8061 34.86C42.8061 34.044 42.6461 33.324 42.3261 32.7C42.0061 32.076 41.5661 31.596 41.0061 31.26C40.4461 30.908 39.7901 30.732 39.0381 30.732C38.1261 30.732 37.3501 30.932 36.7101 31.332C36.0701 31.732 35.5901 32.244 35.2701 32.868H33.3261L34.7181 23.7H43.5981V25.452H36.2781L35.3421 30.612C35.7421 30.148 36.2701 29.772 36.9261 29.484C37.5981 29.18 38.3741 29.028 39.2541 29.028C40.0861 29.028 40.8381 29.172 41.5101 29.46C42.1821 29.748 42.7581 30.156 43.2381 30.684C43.7181 31.212 44.0861 31.828 44.3421 32.532C44.6141 33.236 44.7501 34.004 44.7501 34.836C44.7501 35.652 44.6141 36.42 44.3421 37.14C44.0861 37.844 43.7101 38.476 43.2141 39.036C42.7181 39.58 42.1101 40.012 41.3901 40.332C40.6701 40.636 39.8541 40.788 38.9421 40.788ZM48.9026 43.98H46.8386V43.788C47.8146 42.828 48.6626 41.756 49.3826 40.572C50.1186 39.388 50.6866 38.124 51.0866 36.78C51.5026 35.42 51.7106 33.996 51.7106 32.508C51.7106 31.02 51.5026 29.604 51.0866 28.26C50.6866 26.9 50.1186 25.628 49.3826 24.444C48.6626 23.26 47.8146 22.188 46.8386 21.228V21.036H48.9026C49.7826 21.852 50.5826 22.836 51.3026 23.988C52.0386 25.14 52.6226 26.428 53.0546 27.852C53.5026 29.276 53.7266 30.828 53.7266 32.508C53.7266 34.188 53.5026 35.74 53.0546 37.164C52.6226 38.588 52.0386 39.868 51.3026 41.004C50.5826 42.156 49.7826 43.148 48.9026 43.98Z" fill="#0A0F2A"/></svg>