<svg xmlns="http://www.w3.org/2000/svg" width="64" height="64" viewBox="0 0 64 64" fill="none"><rect width="64" height="64" rx="12.1519" fill="#838DC1" fill-opacity="0.2"/><path d="M13.7994 43.98C12.9354 43.148 12.1354 42.156 11.3994 41.004C10.6634 39.868 10.0714 38.588 9.62344 37.164C9.19144 35.74 8.97544 34.188 8.97544 32.508C8.97544 30.828 9.19144 29.276 9.62344 27.852C10.0714 26.428 10.6634 25.14 11.3994 23.988C12.1354 22.836 12.9354 21.852 13.7994 21.036H15.8634V21.228C14.8874 22.188 14.0314 23.26 13.2954 24.444C12.5754 25.628 12.0074 26.9 11.5914 28.26C11.1914 29.604 10.9914 31.02 10.9914 32.508C10.9914 33.996 11.1914 35.42 11.5914 36.78C12.0074 38.124 12.5834 39.388 13.3194 40.572C14.0554 41.756 14.9034 42.828 15.8634 43.788V43.98H13.7994ZM23.8711 40.788C22.3991 40.788 21.1271 40.428 20.0551 39.708C18.9991 38.972 18.1911 37.956 17.6311 36.66C17.0711 35.348 16.7911 33.828 16.7911 32.1C16.7911 30.372 17.0711 28.86 17.6311 27.564C18.1911 26.252 18.9991 25.236 20.0551 24.516C21.1271 23.78 22.3991 23.412 23.8711 23.412C25.3431 23.412 26.5991 23.78 27.6391 24.516C28.6951 25.236 29.5031 26.252 30.0631 27.564C30.6231 28.86 30.9031 30.372 30.9031 32.1C30.9031 33.828 30.6231 35.348 30.0631 36.66C29.5031 37.956 28.6951 38.972 27.6391 39.708C26.5991 40.428 25.3431 40.788 23.8711 40.788ZM23.8471 39.012C24.8071 39.012 25.6631 38.74 26.4151 38.196C27.1671 37.636 27.7591 36.844 28.1911 35.82C28.6231 34.78 28.8391 33.54 28.8391 32.1C28.8391 30.66 28.6231 29.428 28.1911 28.404C27.7591 27.364 27.1671 26.572 26.4151 26.028C25.6631 25.484 24.8071 25.212 23.8471 25.212C22.8871 25.212 22.0231 25.484 21.2551 26.028C20.5031 26.572 19.9111 27.364 19.4791 28.404C19.0631 29.428 18.8551 30.66 18.8551 32.1C18.8551 33.54 19.0631 34.78 19.4791 35.82C19.9111 36.844 20.5031 37.636 21.2551 38.196C22.0231 38.74 22.8871 39.012 23.8471 39.012ZM41.2533 40.5V36.9H32.7333V35.34L40.8933 23.7H43.2453V35.124H45.7413V36.9H43.2453V40.5H41.2533ZM34.9653 35.124H41.3493V25.932L34.9653 35.124ZM49.1994 43.98H47.1354V43.788C48.1114 42.828 48.9594 41.756 49.6794 40.572C50.4154 39.388 50.9834 38.124 51.3834 36.78C51.7994 35.42 52.0074 33.996 52.0074 32.508C52.0074 31.02 51.7994 29.604 51.3834 28.26C50.9834 26.9 50.4154 25.628 49.6794 24.444C48.9594 23.26 48.1114 22.188 47.1354 21.228V21.036H49.1994C50.0794 21.852 50.8794 22.836 51.5994 23.988C52.3354 25.14 52.9194 26.428 53.3514 27.852C53.7994 29.276 54.0234 30.828 54.0234 32.508C54.0234 34.188 53.7994 35.74 53.3514 37.164C52.9194 38.588 52.3354 39.868 51.5994 41.004C50.8794 42.156 50.0794 43.148 49.1994 43.98Z" fill="#0A0F2A"/></svg>