<svg xmlns="http://www.w3.org/2000/svg" width="64" height="64" viewBox="0 0 64 64" fill="none"><rect width="64" height="64" rx="12.1519" fill="#838DC1" fill-opacity="0.2"/><path fill-rule="evenodd" clip-rule="evenodd" d="M37 39.4219V40.8362C37 43.4415 38.6161 45.7735 41.0555 46.6883L41.7805 46.9602C41.922 47.0133 42.078 47.0133 42.2194 46.9602L42.9445 46.6883C45.3839 45.7735 47 43.4415 47 40.8362V39.4219C47 38.8752 46.6447 38.3918 46.1228 38.2288L42.3728 37.0569C42.1301 36.981 41.8699 36.981 41.6272 37.0569L37.8772 38.2288C37.3553 38.3918 37 38.8752 37 39.4219V39.4219Z" stroke="#838DC1" stroke-width="2.5" stroke-linecap="round" stroke-linejoin="round"/><path d="M30.9042 38.667C27.3367 38.667 23.9152 40.0843 21.3926 42.607" stroke="#838DC1" stroke-width="2.5" stroke-linecap="round" stroke-linejoin="round"/><path d="M47 32C47 23.7157 40.2843 17 32 17C23.7157 17 17 23.7157 17 32C17 40.2843 23.7157 47 32 47" stroke="#838DC1" stroke-width="2.5" stroke-linecap="round" stroke-linejoin="round"/><path fill-rule="evenodd" clip-rule="evenodd" d="M37 28.25V29.0833V29.0833C37 31.8448 34.7614 34.0833 32 34.0833V34.0833C29.2386 34.0833 27 31.8448 27 29.0833V29.0833V28.25V28.25C27 25.4886 29.2386 23.25 32 23.25V23.25C34.7614 23.25 37 25.4886 37 28.25V28.25Z" stroke="#838DC1" stroke-width="2.5" stroke-linecap="round" stroke-linejoin="round"/></svg>