<svg xmlns="http://www.w3.org/2000/svg" width="64" height="64" viewBox="0 0 64 64" fill="none"><rect width="64" height="64" rx="12.1519" fill="#838DC1" fill-opacity="0.2"/><path d="M14.7917 43.98C13.9277 43.148 13.1277 42.156 12.3917 41.004C11.6557 39.868 11.0637 38.588 10.6157 37.164C10.1837 35.74 9.96775 34.188 9.96775 32.508C9.96775 30.828 10.1837 29.276 10.6157 27.852C11.0637 26.428 11.6557 25.14 12.3917 23.988C13.1277 22.836 13.9277 21.852 14.7917 21.036H16.8557V21.228C15.8797 22.188 15.0237 23.26 14.2877 24.444C13.5677 25.628 12.9997 26.9 12.5837 28.26C12.1837 29.604 11.9837 31.02 11.9837 32.508C11.9837 33.996 12.1837 35.42 12.5837 36.78C12.9997 38.124 13.5757 39.388 14.3117 40.572C15.0477 41.756 15.8957 42.828 16.8557 43.788V43.98H14.7917ZM24.8634 40.788C23.3914 40.788 22.1194 40.428 21.0474 39.708C19.9914 38.972 19.1834 37.956 18.6234 36.66C18.0634 35.348 17.7834 33.828 17.7834 32.1C17.7834 30.372 18.0634 28.86 18.6234 27.564C19.1834 26.252 19.9914 25.236 21.0474 24.516C22.1194 23.78 23.3914 23.412 24.8634 23.412C26.3354 23.412 27.5914 23.78 28.6314 24.516C29.6874 25.236 30.4954 26.252 31.0554 27.564C31.6154 28.86 31.8954 30.372 31.8954 32.1C31.8954 33.828 31.6154 35.348 31.0554 36.66C30.4954 37.956 29.6874 38.972 28.6314 39.708C27.5914 40.428 26.3354 40.788 24.8634 40.788ZM24.8394 39.012C25.7994 39.012 26.6554 38.74 27.4074 38.196C28.1594 37.636 28.7514 36.844 29.1834 35.82C29.6154 34.78 29.8314 33.54 29.8314 32.1C29.8314 30.66 29.6154 29.428 29.1834 28.404C28.7514 27.364 28.1594 26.572 27.4074 26.028C26.6554 25.484 25.7994 25.212 24.8394 25.212C23.8794 25.212 23.0154 25.484 22.2474 26.028C21.4954 26.572 20.9034 27.364 20.4714 28.404C20.0554 29.428 19.8474 30.66 19.8474 32.1C19.8474 33.54 20.0554 34.78 20.4714 35.82C20.9034 36.844 21.4954 37.636 22.2474 38.196C23.0154 38.74 23.8794 39.012 24.8394 39.012ZM34.1392 40.5V39.084C35.2752 38.188 36.3552 37.284 37.3792 36.372C38.4192 35.46 39.3392 34.556 40.1392 33.66C40.9392 32.748 41.5632 31.86 42.0112 30.996C42.4752 30.132 42.7072 29.3 42.7072 28.5C42.7072 27.908 42.6032 27.364 42.3952 26.868C42.1872 26.356 41.8512 25.94 41.3872 25.62C40.9392 25.3 40.3312 25.14 39.5632 25.14C38.8112 25.14 38.1872 25.308 37.6912 25.644C37.1952 25.964 36.8192 26.396 36.5632 26.94C36.3232 27.468 36.2032 28.052 36.2032 28.692H34.2592C34.2752 27.588 34.5072 26.644 34.9552 25.86C35.4192 25.06 36.0512 24.452 36.8512 24.036C37.6512 23.62 38.5632 23.412 39.5872 23.412C40.5952 23.412 41.4832 23.604 42.2512 23.988C43.0192 24.356 43.6192 24.908 44.0512 25.644C44.4992 26.38 44.7232 27.308 44.7232 28.428C44.7232 29.212 44.5552 29.996 44.2192 30.78C43.8992 31.564 43.4672 32.332 42.9232 33.084C42.3792 33.82 41.7712 34.532 41.0992 35.22C40.4432 35.908 39.7632 36.556 39.0592 37.164C38.3712 37.772 37.7232 38.324 37.1152 38.82H45.2992V40.5H34.1392ZM49.2074 43.98H47.1434V43.788C48.1194 42.828 48.9674 41.756 49.6874 40.572C50.4234 39.388 50.9914 38.124 51.3914 36.78C51.8074 35.42 52.0154 33.996 52.0154 32.508C52.0154 31.02 51.8074 29.604 51.3914 28.26C50.9914 26.9 50.4234 25.628 49.6874 24.444C48.9674 23.26 48.1194 22.188 47.1434 21.228V21.036H49.2074C50.0874 21.852 50.8874 22.836 51.6074 23.988C52.3434 25.14 52.9274 26.428 53.3594 27.852C53.8074 29.276 54.0314 30.828 54.0314 32.508C54.0314 34.188 53.8074 35.74 53.3594 37.164C52.9274 38.588 52.3434 39.868 51.6074 41.004C50.8874 42.156 50.0874 43.148 49.2074 43.98Z" fill="#0A0F2A"/></svg>