<svg xmlns="http://www.w3.org/2000/svg" width="20" height="16" viewBox="0 0 20 16" fill="none"><path d="M6.48997 15.928C5.14064 15.928 3.97464 15.598 2.99197 14.938C2.02397 14.2633 1.2833 13.332 0.76997 12.144C0.256636 10.9413 -3.02643e-05 9.548 -3.02643e-05 7.964C-3.02643e-05 6.38 0.256636 4.994 0.76997 3.806C1.2833 2.60333 2.02397 1.672 2.99197 1.012C3.97464 0.337335 5.14064 1.19209e-06 6.48997 1.19209e-06C7.8393 1.19209e-06 8.99064 0.337335 9.94397 1.012C10.912 1.672 11.6526 2.60333 12.166 3.806C12.6793 4.994 12.936 6.38 12.936 7.964C12.936 9.548 12.6793 10.9413 12.166 12.144C11.6526 13.332 10.912 14.2633 9.94397 14.938C8.99064 15.598 7.8393 15.928 6.48997 15.928ZM6.46797 14.3C7.34797 14.3 8.13264 14.0507 8.82197 13.552C9.5113 13.0387 10.054 12.3127 10.45 11.374C10.846 10.4207 11.044 9.284 11.044 7.964C11.044 6.644 10.846 5.51467 10.45 4.576C10.054 3.62267 9.5113 2.89667 8.82197 2.398C8.13264 1.89933 7.34797 1.65 6.46797 1.65C5.58797 1.65 4.79597 1.89933 4.09197 2.398C3.40264 2.89667 2.85997 3.62267 2.46397 4.576C2.08264 5.51467 1.89197 6.644 1.89197 7.964C1.89197 9.284 2.08264 10.4207 2.46397 11.374C2.85997 12.3127 3.40264 13.0387 4.09197 13.552C4.79597 14.0507 5.58797 14.3 6.46797 14.3ZM17.327 15.664V2.332L14.687 2.992V1.672L17.943 0.264H19.197V15.664H17.327Z" fill="#A2978D"/></svg>