<svg xmlns="http://www.w3.org/2000/svg" width="26" height="16" viewBox="0 0 26 16" fill="none"><path d="M6.48997 15.928C5.14064 15.928 3.97464 15.598 2.99197 14.938C2.02397 14.2633 1.2833 13.332 0.76997 12.144C0.256636 10.9413 -3.02643e-05 9.548 -3.02643e-05 7.964C-3.02643e-05 6.38 0.256636 4.994 0.76997 3.806C1.2833 2.60333 2.02397 1.672 2.99197 1.012C3.97464 0.337335 5.14064 1.19209e-06 6.48997 1.19209e-06C7.8393 1.19209e-06 8.99064 0.337335 9.94397 1.012C10.912 1.672 11.6526 2.60333 12.166 3.806C12.6793 4.994 12.936 6.38 12.936 7.964C12.936 9.548 12.6793 10.9413 12.166 12.144C11.6526 13.332 10.912 14.2633 9.94397 14.938C8.99064 15.598 7.8393 15.928 6.48997 15.928ZM6.46797 14.3C7.34797 14.3 8.13264 14.0507 8.82197 13.552C9.5113 13.0387 10.054 12.3127 10.45 11.374C10.846 10.4207 11.044 9.284 11.044 7.964C11.044 6.644 10.846 5.51467 10.45 4.576C10.054 3.62267 9.5113 2.89667 8.82197 2.398C8.13264 1.89933 7.34797 1.65 6.46797 1.65C5.58797 1.65 4.79597 1.89933 4.09197 2.398C3.40264 2.89667 2.85997 3.62267 2.46397 4.576C2.08264 5.51467 1.89197 6.644 1.89197 7.964C1.89197 9.284 2.08264 10.4207 2.46397 11.374C2.85997 12.3127 3.40264 13.0387 4.09197 13.552C4.79597 14.0507 5.58797 14.3 6.46797 14.3ZM20.429 15.928C19.4464 15.928 18.5517 15.752 17.745 15.4C16.953 15.0333 16.3224 14.4907 15.853 13.772C15.3837 13.0533 15.1344 12.1587 15.105 11.088H16.975C16.9897 11.6747 17.129 12.2173 17.393 12.716C17.6717 13.2 18.0677 13.5887 18.581 13.882C19.0944 14.1753 19.7104 14.322 20.429 14.322C21.1477 14.322 21.749 14.1827 22.233 13.904C22.717 13.6253 23.0837 13.2587 23.333 12.804C23.5824 12.3347 23.707 11.814 23.707 11.242C23.707 10.5233 23.531 9.944 23.179 9.504C22.8417 9.04933 22.3797 8.71933 21.793 8.514C21.221 8.294 20.5904 8.184 19.901 8.184H18.757V6.622H19.901C20.913 6.622 21.705 6.38733 22.277 5.918C22.849 5.44867 23.135 4.80333 23.135 3.982C23.135 3.30733 22.9077 2.74267 22.453 2.288C22.013 1.83333 21.3384 1.606 20.429 1.606C19.5637 1.606 18.8744 1.85533 18.361 2.354C17.8477 2.85267 17.5544 3.49067 17.481 4.268H15.611C15.655 3.432 15.8824 2.69133 16.293 2.046C16.7037 1.40067 17.261 0.902001 17.965 0.550001C18.669 0.183334 19.4977 1.19209e-06 20.451 1.19209e-06C21.4484 1.19209e-06 22.2844 0.176001 22.959 0.528001C23.6337 0.880001 24.1397 1.34933 24.477 1.936C24.829 2.52267 25.005 3.168 25.005 3.872C25.005 4.4 24.9097 4.89867 24.719 5.368C24.5284 5.82267 24.2424 6.226 23.861 6.578C23.4797 6.93 22.9957 7.17933 22.409 7.326C23.0104 7.44333 23.5457 7.67067 24.015 8.008C24.499 8.34533 24.8804 8.78533 25.159 9.328C25.4377 9.87067 25.577 10.5087 25.577 11.242C25.577 12.078 25.379 12.8553 24.983 13.574C24.6017 14.278 24.0297 14.85 23.267 15.29C22.5044 15.7153 21.5584 15.928 20.429 15.928Z" fill="#A2978D"/></svg>