<svg xmlns="http://www.w3.org/2000/svg" width="26" height="16" viewBox="0 0 26 16" fill="none"><path d="M6.48997 15.928C5.14064 15.928 3.97464 15.598 2.99197 14.938C2.02397 14.2633 1.2833 13.332 0.76997 12.144C0.256636 10.9413 -3.02643e-05 9.548 -3.02643e-05 7.964C-3.02643e-05 6.38 0.256636 4.994 0.76997 3.806C1.2833 2.60333 2.02397 1.672 2.99197 1.012C3.97464 0.337335 5.14064 1.19209e-06 6.48997 1.19209e-06C7.8393 1.19209e-06 8.99064 0.337335 9.94397 1.012C10.912 1.672 11.6526 2.60333 12.166 3.806C12.6793 4.994 12.936 6.38 12.936 7.964C12.936 9.548 12.6793 10.9413 12.166 12.144C11.6526 13.332 10.912 14.2633 9.94397 14.938C8.99064 15.598 7.8393 15.928 6.48997 15.928ZM6.46797 14.3C7.34797 14.3 8.13264 14.0507 8.82197 13.552C9.5113 13.0387 10.054 12.3127 10.45 11.374C10.846 10.4207 11.044 9.284 11.044 7.964C11.044 6.644 10.846 5.51467 10.45 4.576C10.054 3.62267 9.5113 2.89667 8.82197 2.398C8.13264 1.89933 7.34797 1.65 6.46797 1.65C5.58797 1.65 4.79597 1.89933 4.09197 2.398C3.40264 2.89667 2.85997 3.62267 2.46397 4.576C2.08264 5.51467 1.89197 6.644 1.89197 7.964C1.89197 9.284 2.08264 10.4207 2.46397 11.374C2.85997 12.3127 3.40264 13.0387 4.09197 13.552C4.79597 14.0507 5.58797 14.3 6.46797 14.3ZM15.1762 15.664V14.366C16.2175 13.5447 17.2075 12.716 18.1462 11.88C19.0995 11.044 19.9429 10.2153 20.6762 9.394C21.4095 8.558 21.9815 7.744 22.3922 6.952C22.8175 6.16 23.0302 5.39733 23.0302 4.664C23.0302 4.12133 22.9349 3.62267 22.7442 3.168C22.5535 2.69867 22.2455 2.31733 21.8202 2.024C21.4095 1.73067 20.8522 1.584 20.1482 1.584C19.4589 1.584 18.8869 1.738 18.4322 2.046C17.9775 2.33933 17.6329 2.73533 17.3982 3.234C17.1782 3.718 17.0682 4.25333 17.0682 4.84H15.2862C15.3009 3.828 15.5135 2.96267 15.9242 2.244C16.3495 1.51067 16.9289 0.953334 17.6622 0.572C18.3955 0.190668 19.2315 1.19209e-06 20.1702 1.19209e-06C21.0942 1.19209e-06 21.9082 0.176001 22.6122 0.528001C23.3162 0.865334 23.8662 1.37133 24.2622 2.046C24.6729 2.72067 24.8782 3.57133 24.8782 4.598C24.8782 5.31667 24.7242 6.03533 24.4162 6.754C24.1229 7.47267 23.7269 8.17667 23.2282 8.866C22.7295 9.54067 22.1722 10.1933 21.5562 10.824C20.9549 11.4547 20.3315 12.0487 19.6862 12.606C19.0555 13.1633 18.4615 13.6693 17.9042 14.124H25.4062V15.664H15.1762Z" fill="#A2978D"/></svg>